<?xml version="1.0" standalone="no"?>
<!DOCTYPE svg PUBLIC "-//W3C//DTD SVG 20010904//EN"
 "http://www.w3.org/TR/2001/REC-SVG-20010904/DTD/svg10.dtd">
<svg version="1.0" xmlns="http://www.w3.org/2000/svg"
 width="160.000000pt" height="160.000000pt" viewBox="0 0 160.000000 160.000000"
 preserveAspectRatio="xMidYMid meet">
<metadata>
Created by potrace 1.14, written by Peter Selinger 2001-2017
</metadata>
<g transform="translate(0.000000,160.000000) scale(0.100000,-0.100000)"
fill="#000000" stroke="none">
<path d="M547 1594 c-6 -6 8 -39 76 -184 54 -116 177 -390 177 -395 0 -3 -19
-3 -42 -1 -56 6 -116 -21 -162 -72 -20 -22 -51 -45 -69 -53 -17 -7 -34 -14
-36 -15 -1 -2 7 -21 19 -42 22 -39 22 -40 4 -65 -42 -56 -107 -73 -139 -37
-24 27 -43 25 -57 -4 -7 -18 -22 -27 -49 -31 -35 -6 -70 -26 -164 -92 -46 -33
-65 -78 -59 -141 6 -61 49 -147 97 -195 22 -22 33 -38 24 -34 -29 11 -28 -10
3 -43 29 -31 55 -34 43 -3 -7 17 10 8 97 -53 173 -123 371 -74 427 105 14 42
23 56 45 63 16 6 28 12 28 15 0 3 -14 26 -31 51 l-30 45 19 26 c24 33 90 71
111 63 9 -3 25 -14 35 -25 19 -20 19 -19 39 22 11 23 28 46 38 52 21 11 12 28
151 -281 38 -85 74 -159 78 -164 4 -4 36 4 69 19 l61 28 21 -24 c11 -13 30
-45 41 -71 21 -50 39 -58 71 -34 17 13 16 16 -8 61 -14 27 -25 58 -25 70 0 25
-69 178 -82 183 -7 3 -158 306 -158 317 0 1 -34 73 -75 159 -41 86 -75 162
-75 170 0 17 85 100 141 138 28 19 51 27 65 24 24 -7 74 27 74 50 0 8 4 14 10
14 5 0 7 -6 5 -13 -3 -7 13 -24 36 -39 32 -21 46 -25 60 -17 27 14 24 24 -17
57 -24 20 -43 28 -57 24 -19 -5 -20 -3 -9 10 21 25 49 28 69 6 10 -11 30 -26
44 -34 24 -12 28 -11 44 6 17 18 16 20 -16 49 l-33 31 26 27 c15 16 34 44 42
64 17 42 15 48 -50 97 -45 34 -68 39 -109 20 -29 -13 -35 -57 -9 -79 13 -11
12 -14 -13 -24 -25 -11 -32 -8 -71 21 -41 31 -72 36 -72 10 0 -6 14 -20 30
-31 34 -22 36 -28 17 -43 -10 -9 -22 -5 -50 15 -30 21 -39 24 -52 13 -23 -19
-18 -32 20 -60 37 -27 39 -29 27 -46 -9 -13 -213 -166 -217 -162 -1 2 -16 32
-33 68 -16 36 -49 106 -72 155 -23 50 -57 122 -75 161 -19 40 -39 75 -45 79
-6 4 -54 9 -106 11 -52 2 -99 6 -103 8 -5 3 -11 3 -14 0z m240 -201 c124 -263
153 -326 151 -328 -2 0 -22 -15 -44 -33 -32 -24 -44 -29 -51 -19 -24 32 -205
447 -200 460 3 8 23 19 44 25 21 5 39 10 41 11 2 1 28 -52 59 -116z m313 -668
c180 -380 194 -413 180 -430 -7 -9 -10 -18 -7 -22 4 -3 2 -14 -4 -24 -27 -52
-83 5 -149 151 -28 63 -58 129 -66 147 -13 29 -12 34 7 67 30 51 26 99 -14
188 -19 42 -33 79 -29 82 3 3 13 -11 22 -32 9 -20 36 -77 60 -127z"/>
</g>
</svg>
